solid OpenSCAD_Model
  facet normal -1 0 0
    outer loop
      vertex -21.5 -10 -1
      vertex -21.5 10 1
      vertex -21.5 10 -1
    endloop
  endfacet
  facet normal -1 -0 0
    outer loop
      vertex -21.5 10 1
      vertex -21.5 -10 -1
      vertex -21.5 -10 1
    endloop
  endfacet
  facet normal -0 0 1
    outer loop
      vertex -21.5 10 1
      vertex -14 -3.13397 1
      vertex -14 10 1
    endloop
  endfacet
  facet normal 0 0 1
    outer loop
      vertex -14 -3.13397 1
      vertex -21.5 10 1
      vertex -14.366 -3.5 1
    endloop
  endfacet
  facet normal 0 0 1
    outer loop
      vertex -21.5 -10 1
      vertex -14.366 -3.5 1
      vertex -21.5 10 1
    endloop
  endfacet
  facet normal 0 0 1
    outer loop
      vertex 13 10 1
      vertex 12.634 -3.5 1
      vertex 13 -3.13397 1
    endloop
  endfacet
  facet normal 0 0 1
    outer loop
      vertex -12.634 -3.5 1
      vertex 12.634 -3.5 1
      vertex 13 10 1
    endloop
  endfacet
  facet normal 0 0 1
    outer loop
      vertex 12.634 -3.5 1
      vertex -12.634 -3.5 1
      vertex 12.5 -4 1
    endloop
  endfacet
  facet normal 0 0 1
    outer loop
      vertex 12.5 -4 1
      vertex -12.634 -3.5 1
      vertex -12.5 -4 1
    endloop
  endfacet
  facet normal -0 0 1
    outer loop
      vertex -13 10 1
      vertex -12.634 -3.5 1
      vertex 13 10 1
    endloop
  endfacet
  facet normal 0 0 1
    outer loop
      vertex -12.634 -3.5 1
      vertex -13 10 1
      vertex -13 -3.13397 1
    endloop
  endfacet
  facet normal -0 0 1
    outer loop
      vertex 14.366 -3.5 1
      vertex 21.5 -10 1
      vertex 21.5 10 1
    endloop
  endfacet
  facet normal 0 0 1
    outer loop
      vertex 21.5 -10 1
      vertex 14.366 -3.5 1
      vertex 14.5 -4 1
    endloop
  endfacet
  facet normal 0 0 1
    outer loop
      vertex 14 -3.13397 1
      vertex 21.5 10 1
      vertex 14 10 1
    endloop
  endfacet
  facet normal 0 0 1
    outer loop
      vertex 21.5 10 1
      vertex 14 -3.13397 1
      vertex 14.366 -3.5 1
    endloop
  endfacet
  facet normal -0 0 1
    outer loop
      vertex 14.366 -4.5 1
      vertex 21.5 -10 1
      vertex 14.5 -4 1
    endloop
  endfacet
  facet normal -0 0 1
    outer loop
      vertex 14 -4.86602 1
      vertex 21.5 -10 1
      vertex 14.366 -4.5 1
    endloop
  endfacet
  facet normal -0 0 1
    outer loop
      vertex 13.5 -5 1
      vertex 21.5 -10 1
      vertex 14 -4.86602 1
    endloop
  endfacet
  facet normal 0 0 1
    outer loop
      vertex 13 -4.86602 1
      vertex 21.5 -10 1
      vertex 13.5 -5 1
    endloop
  endfacet
  facet normal -0 0 1
    outer loop
      vertex -12.5 -4 1
      vertex 12.634 -4.5 1
      vertex 12.5 -4 1
    endloop
  endfacet
  facet normal 0 0 1
    outer loop
      vertex -12.634 -4.5 1
      vertex 12.634 -4.5 1
      vertex -12.5 -4 1
    endloop
  endfacet
  facet normal 0 0 1
    outer loop
      vertex 12.634 -4.5 1
      vertex -12.634 -4.5 1
      vertex 13 -4.86602 1
    endloop
  endfacet
  facet normal 0 0 1
    outer loop
      vertex -13 -4.86602 1
      vertex 13 -4.86602 1
      vertex -12.634 -4.5 1
    endloop
  endfacet
  facet normal 0 0 1
    outer loop
      vertex 13 -4.86602 1
      vertex -13 -4.86602 1
      vertex 21.5 -10 1
    endloop
  endfacet
  facet normal 0 0 1
    outer loop
      vertex -21.5 -10 1
      vertex -13 -4.86602 1
      vertex -13.5 -5 1
    endloop
  endfacet
  facet normal 0 0 1
    outer loop
      vertex -14.366 -3.5 1
      vertex -21.5 -10 1
      vertex -14.5 -4 1
    endloop
  endfacet
  facet normal 0 0 1
    outer loop
      vertex -13 -4.86602 1
      vertex -21.5 -10 1
      vertex 21.5 -10 1
    endloop
  endfacet
  facet normal 0 0 1
    outer loop
      vertex -14 -4.86602 1
      vertex -21.5 -10 1
      vertex -13.5 -5 1
    endloop
  endfacet
  facet normal 0 0 1
    outer loop
      vertex -14.366 -4.5 1
      vertex -21.5 -10 1
      vertex -14 -4.86602 1
    endloop
  endfacet
  facet normal 0 0 1
    outer loop
      vertex -14.5 -4 1
      vertex -21.5 -10 1
      vertex -14.366 -4.5 1
    endloop
  endfacet
  facet normal 1 -0 0
    outer loop
      vertex 21.5 -10 1
      vertex 21.5 10 -1
      vertex 21.5 10 1
    endloop
  endfacet
  facet normal 1 0 0
    outer loop
      vertex 21.5 10 -1
      vertex 21.5 -10 1
      vertex 21.5 -10 -1
    endloop
  endfacet
  facet normal 0 1 -0
    outer loop
      vertex 21.5 10 -1
      vertex 14 10 1
      vertex 21.5 10 1
    endloop
  endfacet
  facet normal 0 1 0
    outer loop
      vertex 14 10 1
      vertex 21.5 10 -1
      vertex 14 10 -1
    endloop
  endfacet
  facet normal 0 1 -0
    outer loop
      vertex -14 10 -1
      vertex -21.5 10 1
      vertex -14 10 1
    endloop
  endfacet
  facet normal 0 1 0
    outer loop
      vertex -21.5 10 1
      vertex -14 10 -1
      vertex -21.5 10 -1
    endloop
  endfacet
  facet normal 0 1 -0
    outer loop
      vertex 13 10 -1
      vertex -13 10 1
      vertex 13 10 1
    endloop
  endfacet
  facet normal 0 1 0
    outer loop
      vertex -13 10 1
      vertex 13 10 -1
      vertex -13 10 -1
    endloop
  endfacet
  facet normal 0 0 -1
    outer loop
      vertex 14.366 -3.5 -1
      vertex 21.5 -10 -1
      vertex 14.5 -4 -1
    endloop
  endfacet
  facet normal 0 0 -1
    outer loop
      vertex 21.5 -10 -1
      vertex 14.366 -4.5 -1
      vertex 14.5 -4 -1
    endloop
  endfacet
  facet normal 0 0 -1
    outer loop
      vertex 21.5 -10 -1
      vertex 14 -4.86602 -1
      vertex 14.366 -4.5 -1
    endloop
  endfacet
  facet normal 0 0 -1
    outer loop
      vertex 21.5 -10 -1
      vertex 13.5 -5 -1
      vertex 14 -4.86602 -1
    endloop
  endfacet
  facet normal 0 0 -1
    outer loop
      vertex 21.5 -10 -1
      vertex 13 -4.86602 -1
      vertex 13.5 -5 -1
    endloop
  endfacet
  facet normal 0 0 -1
    outer loop
      vertex 12.634 -4.5 -1
      vertex -12.5 -4 -1
      vertex 12.5 -4 -1
    endloop
  endfacet
  facet normal 0 0 -1
    outer loop
      vertex -12.634 -4.5 -1
      vertex 12.634 -4.5 -1
      vertex 13 -4.86602 -1
    endloop
  endfacet
  facet normal 0 0 -1
    outer loop
      vertex -13 -4.86602 -1
      vertex 13 -4.86602 -1
      vertex 21.5 -10 -1
    endloop
  endfacet
  facet normal 0 0 -1
    outer loop
      vertex 12.634 -4.5 -1
      vertex -12.634 -4.5 -1
      vertex -12.5 -4 -1
    endloop
  endfacet
  facet normal 0 0 -1
    outer loop
      vertex 13 -4.86602 -1
      vertex -13 -4.86602 -1
      vertex -12.634 -4.5 -1
    endloop
  endfacet
  facet normal 0 0 -1
    outer loop
      vertex -21.5 -10 -1
      vertex -13 -4.86602 -1
      vertex 21.5 -10 -1
    endloop
  endfacet
  facet normal -0 0 -1
    outer loop
      vertex -14.366 -4.5 -1
      vertex -21.5 -10 -1
      vertex -14.5 -4 -1
    endloop
  endfacet
  facet normal -0 0 -1
    outer loop
      vertex -14 -4.86602 -1
      vertex -21.5 -10 -1
      vertex -14.366 -4.5 -1
    endloop
  endfacet
  facet normal -0 0 -1
    outer loop
      vertex -13.5 -5 -1
      vertex -21.5 -10 -1
      vertex -14 -4.86602 -1
    endloop
  endfacet
  facet normal 0 0 -1
    outer loop
      vertex -13 -4.86602 -1
      vertex -21.5 -10 -1
      vertex -13.5 -5 -1
    endloop
  endfacet
  facet normal 0 0 -1
    outer loop
      vertex 21.5 -10 -1
      vertex 14.366 -3.5 -1
      vertex 21.5 10 -1
    endloop
  endfacet
  facet normal 0 0 -1
    outer loop
      vertex 14 -3.13397 -1
      vertex 21.5 10 -1
      vertex 14.366 -3.5 -1
    endloop
  endfacet
  facet normal -0 0 -1
    outer loop
      vertex 21.5 10 -1
      vertex 14 -3.13397 -1
      vertex 14 10 -1
    endloop
  endfacet
  facet normal 0 0 -1
    outer loop
      vertex 12.634 -3.5 -1
      vertex 13 10 -1
      vertex 13 -3.13397 -1
    endloop
  endfacet
  facet normal 0 0 -1
    outer loop
      vertex -12.634 -3.5 -1
      vertex 12.634 -3.5 -1
      vertex 12.5 -4 -1
    endloop
  endfacet
  facet normal 0 0 -1
    outer loop
      vertex -12.634 -3.5 -1
      vertex 12.5 -4 -1
      vertex -12.5 -4 -1
    endloop
  endfacet
  facet normal 0 0 -1
    outer loop
      vertex 12.634 -3.5 -1
      vertex -12.634 -3.5 -1
      vertex 13 10 -1
    endloop
  endfacet
  facet normal 0 0 -1
    outer loop
      vertex -13 10 -1
      vertex -12.634 -3.5 -1
      vertex -13 -3.13397 -1
    endloop
  endfacet
  facet normal 0 0 -1
    outer loop
      vertex -12.634 -3.5 -1
      vertex -13 10 -1
      vertex 13 10 -1
    endloop
  endfacet
  facet normal 0 0 -1
    outer loop
      vertex -21.5 10 -1
      vertex -14 -3.13397 -1
      vertex -14.366 -3.5 -1
    endloop
  endfacet
  facet normal 0 0 -1
    outer loop
      vertex -21.5 -10 -1
      vertex -14.366 -3.5 -1
      vertex -14.5 -4 -1
    endloop
  endfacet
  facet normal -0 0 -1
    outer loop
      vertex -14.366 -3.5 -1
      vertex -21.5 -10 -1
      vertex -21.5 10 -1
    endloop
  endfacet
  facet normal 0 0 -1
    outer loop
      vertex -14 -3.13397 -1
      vertex -21.5 10 -1
      vertex -14 10 -1
    endloop
  endfacet
  facet normal 0 -1 0
    outer loop
      vertex -21.5 -10 -1
      vertex 21.5 -10 1
      vertex -21.5 -10 1
    endloop
  endfacet
  facet normal 0 -1 -0
    outer loop
      vertex 21.5 -10 1
      vertex -21.5 -10 -1
      vertex 21.5 -10 -1
    endloop
  endfacet
  facet normal -0.965926 -0.258818 0
    outer loop
      vertex -12.5 -4 -1
      vertex -12.634 -3.5 1
      vertex -12.634 -3.5 -1
    endloop
  endfacet
  facet normal -0.965926 -0.258818 0
    outer loop
      vertex -12.634 -3.5 1
      vertex -12.5 -4 -1
      vertex -12.5 -4 1
    endloop
  endfacet
  facet normal 0.965926 -0.25882 0
    outer loop
      vertex -14.5 -4 1
      vertex -14.366 -3.5 -1
      vertex -14.366 -3.5 1
    endloop
  endfacet
  facet normal 0.965926 -0.25882 0
    outer loop
      vertex -14.366 -3.5 -1
      vertex -14.5 -4 1
      vertex -14.5 -4 -1
    endloop
  endfacet
  facet normal -0.707107 -0.707107 0
    outer loop
      vertex -12.634 -3.5 -1
      vertex -13 -3.13397 1
      vertex -13 -3.13397 -1
    endloop
  endfacet
  facet normal -0.707107 -0.707107 0
    outer loop
      vertex -13 -3.13397 1
      vertex -12.634 -3.5 -1
      vertex -12.634 -3.5 1
    endloop
  endfacet
  facet normal 0.707108 -0.707106 0
    outer loop
      vertex -14.366 -3.5 1
      vertex -14 -3.13397 -1
      vertex -14 -3.13397 1
    endloop
  endfacet
  facet normal 0.707108 -0.707106 0
    outer loop
      vertex -14 -3.13397 -1
      vertex -14.366 -3.5 1
      vertex -14.366 -3.5 -1
    endloop
  endfacet
  facet normal 0.25882 0.965926 -0
    outer loop
      vertex -13.5 -5 -1
      vertex -14 -4.86602 1
      vertex -13.5 -5 1
    endloop
  endfacet
  facet normal 0.25882 0.965926 0
    outer loop
      vertex -14 -4.86602 1
      vertex -13.5 -5 -1
      vertex -14 -4.86602 -1
    endloop
  endfacet
  facet normal 0.965926 0.25882 0
    outer loop
      vertex -14.366 -4.5 1
      vertex -14.5 -4 -1
      vertex -14.5 -4 1
    endloop
  endfacet
  facet normal 0.965926 0.25882 0
    outer loop
      vertex -14.5 -4 -1
      vertex -14.366 -4.5 1
      vertex -14.366 -4.5 -1
    endloop
  endfacet
  facet normal -0.965926 0.258818 0
    outer loop
      vertex -12.634 -4.5 -1
      vertex -12.5 -4 1
      vertex -12.5 -4 -1
    endloop
  endfacet
  facet normal -0.965926 0.258818 0
    outer loop
      vertex -12.5 -4 1
      vertex -12.634 -4.5 -1
      vertex -12.634 -4.5 1
    endloop
  endfacet
  facet normal -0.25882 0.965926 0
    outer loop
      vertex -13 -4.86602 -1
      vertex -13.5 -5 1
      vertex -13 -4.86602 1
    endloop
  endfacet
  facet normal -0.25882 0.965926 0
    outer loop
      vertex -13.5 -5 1
      vertex -13 -4.86602 -1
      vertex -13.5 -5 -1
    endloop
  endfacet
  facet normal -0.707106 0.707108 0
    outer loop
      vertex -12.634 -4.5 -1
      vertex -13 -4.86602 1
      vertex -12.634 -4.5 1
    endloop
  endfacet
  facet normal -0.707106 0.707108 0
    outer loop
      vertex -13 -4.86602 1
      vertex -12.634 -4.5 -1
      vertex -13 -4.86602 -1
    endloop
  endfacet
  facet normal 0.707107 0.707107 0
    outer loop
      vertex -14 -4.86602 1
      vertex -14.366 -4.5 -1
      vertex -14.366 -4.5 1
    endloop
  endfacet
  facet normal 0.707107 0.707107 0
    outer loop
      vertex -14.366 -4.5 -1
      vertex -14 -4.86602 1
      vertex -14 -4.86602 -1
    endloop
  endfacet
  facet normal -0.965926 -0.25882 0
    outer loop
      vertex 14.5 -4 -1
      vertex 14.366 -3.5 1
      vertex 14.366 -3.5 -1
    endloop
  endfacet
  facet normal -0.965926 -0.25882 0
    outer loop
      vertex 14.366 -3.5 1
      vertex 14.5 -4 -1
      vertex 14.5 -4 1
    endloop
  endfacet
  facet normal -0.707108 -0.707106 0
    outer loop
      vertex 14.366 -3.5 -1
      vertex 14 -3.13397 1
      vertex 14 -3.13397 -1
    endloop
  endfacet
  facet normal -0.707108 -0.707106 0
    outer loop
      vertex 14 -3.13397 1
      vertex 14.366 -3.5 -1
      vertex 14.366 -3.5 1
    endloop
  endfacet
  facet normal 0.965926 0.258818 0
    outer loop
      vertex 12.634 -4.5 1
      vertex 12.5 -4 -1
      vertex 12.5 -4 1
    endloop
  endfacet
  facet normal 0.965926 0.258818 0
    outer loop
      vertex 12.5 -4 -1
      vertex 12.634 -4.5 1
      vertex 12.634 -4.5 -1
    endloop
  endfacet
  facet normal 0.707107 -0.707107 0
    outer loop
      vertex 12.634 -3.5 1
      vertex 13 -3.13397 -1
      vertex 13 -3.13397 1
    endloop
  endfacet
  facet normal 0.707107 -0.707107 0
    outer loop
      vertex 13 -3.13397 -1
      vertex 12.634 -3.5 1
      vertex 12.634 -3.5 -1
    endloop
  endfacet
  facet normal -0.965926 0.25882 0
    outer loop
      vertex 14.366 -4.5 -1
      vertex 14.5 -4 1
      vertex 14.5 -4 -1
    endloop
  endfacet
  facet normal -0.965926 0.25882 0
    outer loop
      vertex 14.5 -4 1
      vertex 14.366 -4.5 -1
      vertex 14.366 -4.5 1
    endloop
  endfacet
  facet normal 0.965926 -0.258818 0
    outer loop
      vertex 12.5 -4 1
      vertex 12.634 -3.5 -1
      vertex 12.634 -3.5 1
    endloop
  endfacet
  facet normal 0.965926 -0.258818 0
    outer loop
      vertex 12.634 -3.5 -1
      vertex 12.5 -4 1
      vertex 12.5 -4 -1
    endloop
  endfacet
  facet normal 0.707106 0.707108 -0
    outer loop
      vertex 13 -4.86602 -1
      vertex 12.634 -4.5 1
      vertex 13 -4.86602 1
    endloop
  endfacet
  facet normal 0.707106 0.707108 0
    outer loop
      vertex 12.634 -4.5 1
      vertex 13 -4.86602 -1
      vertex 12.634 -4.5 -1
    endloop
  endfacet
  facet normal -0.25882 0.965926 0
    outer loop
      vertex 14 -4.86602 -1
      vertex 13.5 -5 1
      vertex 14 -4.86602 1
    endloop
  endfacet
  facet normal -0.25882 0.965926 0
    outer loop
      vertex 13.5 -5 1
      vertex 14 -4.86602 -1
      vertex 13.5 -5 -1
    endloop
  endfacet
  facet normal -0.707107 0.707107 0
    outer loop
      vertex 14 -4.86602 -1
      vertex 14.366 -4.5 1
      vertex 14.366 -4.5 -1
    endloop
  endfacet
  facet normal -0.707107 0.707107 0
    outer loop
      vertex 14.366 -4.5 1
      vertex 14 -4.86602 -1
      vertex 14 -4.86602 1
    endloop
  endfacet
  facet normal 0.25882 0.965926 -0
    outer loop
      vertex 13.5 -5 -1
      vertex 13 -4.86602 1
      vertex 13.5 -5 1
    endloop
  endfacet
  facet normal 0.25882 0.965926 0
    outer loop
      vertex 13 -4.86602 1
      vertex 13.5 -5 -1
      vertex 13 -4.86602 -1
    endloop
  endfacet
  facet normal 1 -0 0
    outer loop
      vertex -14 -3.13397 1
      vertex -14 10 -1
      vertex -14 10 1
    endloop
  endfacet
  facet normal 1 0 0
    outer loop
      vertex -14 10 -1
      vertex -14 -3.13397 1
      vertex -14 -3.13397 -1
    endloop
  endfacet
  facet normal -1 0 0
    outer loop
      vertex -13 -3.13397 -1
      vertex -13 10 1
      vertex -13 10 -1
    endloop
  endfacet
  facet normal -1 -0 0
    outer loop
      vertex -13 10 1
      vertex -13 -3.13397 -1
      vertex -13 -3.13397 1
    endloop
  endfacet
  facet normal 1 -0 0
    outer loop
      vertex 13 -3.13397 1
      vertex 13 10 -1
      vertex 13 10 1
    endloop
  endfacet
  facet normal 1 0 0
    outer loop
      vertex 13 10 -1
      vertex 13 -3.13397 1
      vertex 13 -3.13397 -1
    endloop
  endfacet
  facet normal -1 0 0
    outer loop
      vertex 14 -3.13397 -1
      vertex 14 10 1
      vertex 14 10 -1
    endloop
  endfacet
  facet normal -1 -0 0
    outer loop
      vertex 14 10 1
      vertex 14 -3.13397 -1
      vertex 14 -3.13397 1
    endloop
  endfacet
endsolid OpenSCAD_Model
